<svg xmlns="http://www.w3.org/2000/svg" width="234" height="45"><path d="M 78.511 3.407 L 78.511 34.215 C 78.511 34.687 78.254 34.944 77.782 34.944 L 73.103 34.944 C 72.631 34.944 72.374 34.687 72.374 34.215 L 72.374 31.682 C 70.701 33.914 68.168 35.286 65.167 35.286 C 59.673 35.286 55.21 30.738 55.21 24.043 C 55.21 17.349 59.673 12.76 65.379 12.76 C 68.339 12.76 70.742 14.091 72.374 16.233 L 72.374 6.066 C 72.374 3.879 71.947 3.061 71.947 2.205 C 71.947 1.778 72.162 1.476 72.635 1.476 L 76.625 1.476 C 77.908 1.476 78.511 2.075 78.511 3.407 Z M 72.374 24.043 C 72.374 20.481 69.972 17.993 66.669 17.993 C 63.192 17.993 60.964 20.566 60.964 24.043 C 60.964 27.521 63.195 30.05 66.669 30.05 C 69.972 30.053 72.374 27.606 72.374 24.043 Z M 97.925 15.378 L 95.823 18.811 C 95.608 19.198 95.18 19.238 94.838 19.067 C 93.938 18.51 92.948 18.123 91.833 18.123 C 89.902 18.123 88.53 19.279 87.712 20.953 L 87.712 34.215 C 87.712 34.602 87.455 34.944 87.068 34.944 L 82.219 34.944 C 81.791 34.944 81.531 34.643 81.531 34.215 L 81.531 13.745 C 81.531 13.359 81.832 13.057 82.174 13.057 L 87.065 13.057 C 87.492 13.057 87.708 13.314 87.708 13.745 L 87.708 16.018 C 89.081 14.214 91.011 12.756 93.588 12.756 C 95.433 12.756 96.764 13.444 97.623 14.173 C 98.096 14.564 98.226 14.906 97.925 15.378 Z M 97.244 24.043 C 97.244 17.308 102.35 12.76 108.829 12.76 C 115.267 12.76 120.37 17.308 120.37 24.043 C 120.37 30.738 115.263 35.286 108.829 35.286 C 102.35 35.286 97.244 30.738 97.244 24.043 Z M 114.709 24.043 C 114.709 20.57 112.262 17.993 108.829 17.993 C 105.352 17.993 102.908 20.566 102.908 24.043 C 102.908 27.521 105.355 30.05 108.829 30.05 C 112.262 30.053 114.709 27.521 114.709 24.043 Z M 145.838 24.043 C 145.838 30.738 141.375 35.286 135.927 35.286 C 132.881 35.286 130.393 33.914 128.719 31.723 L 128.719 42.493 C 128.719 43.137 128.332 43.524 127.689 43.524 L 123.568 43.524 C 122.925 43.524 122.538 43.137 122.538 42.493 L 122.538 17.052 C 122.538 15.679 122.281 14.735 122.151 13.961 C 122.065 13.489 122.281 13.061 122.794 13.061 L 126.785 13.061 C 128.116 13.061 128.715 13.664 128.715 14.991 L 128.715 16.237 C 130.344 14.091 132.751 12.764 135.711 12.764 C 141.375 12.76 145.838 17.353 145.838 24.043 Z M 140.129 24.043 C 140.129 20.57 137.898 17.993 134.379 17.993 C 131.118 17.993 128.715 20.481 128.715 24.043 C 128.715 27.606 131.118 30.05 134.379 30.05 C 137.901 30.053 140.129 27.521 140.129 24.043 Z M 149.937 27.521 L 149.937 18.595 L 147.489 18.595 C 147.103 18.595 146.801 18.294 146.801 17.907 L 146.801 16.75 C 146.801 16.278 146.801 16.148 147.188 15.806 C 150.149 13.444 151.651 11.644 153.54 7.226 C 153.756 6.884 154.054 6.497 154.485 6.497 L 155.556 6.497 C 155.943 6.497 156.2 6.839 156.2 7.226 L 156.2 13.061 L 160.748 13.061 C 161.22 13.061 161.477 13.318 161.477 13.749 L 161.477 17.955 C 161.477 18.342 161.135 18.599 160.748 18.599 L 157.446 18.599 C 156.843 18.599 156.415 18.554 156.114 18.469 L 156.114 26.877 C 156.114 28.551 156.757 29.838 158.476 29.838 C 159.249 29.838 159.763 29.622 160.32 29.365 C 160.707 29.194 161.008 29.15 161.22 29.622 L 162.849 32.798 C 163.065 33.14 162.849 33.4 162.507 33.657 C 161.261 34.643 159.246 35.286 157.185 35.286 C 152.852 35.286 149.937 32.497 149.937 27.521 Z M 185.785 13.79 L 185.785 34.256 C 185.785 34.643 185.529 34.944 185.142 34.944 L 180.292 34.944 C 179.864 34.944 179.604 34.687 179.604 34.256 L 179.604 31.638 C 178.102 33.527 175.87 35.241 172.482 35.241 C 168.105 35.241 164.586 32.452 164.586 27.089 L 164.586 17.048 C 164.586 15.717 164.456 14.817 164.33 13.957 C 164.244 13.485 164.415 13.057 164.802 13.057 L 169.135 13.057 C 170.206 13.057 170.764 13.786 170.764 14.772 L 170.764 25.669 C 170.764 28.116 172.222 29.83 174.84 29.83 C 177.027 29.83 178.615 28.584 179.604 26.911 L 179.604 13.783 C 179.604 13.396 179.905 13.054 180.292 13.054 L 185.097 13.054 C 185.529 13.061 185.785 13.362 185.785 13.79 Z M 209.777 34.944 L 205.4 34.944 C 204.37 34.944 203.812 34.215 203.812 33.229 L 203.812 22.333 C 203.812 19.886 202.354 18.171 199.691 18.171 C 197.545 18.171 195.916 19.417 194.927 21.087 L 194.927 34.215 C 194.927 34.602 194.67 34.944 194.283 34.944 L 189.434 34.944 C 189.006 34.944 188.746 34.643 188.746 34.215 L 188.746 13.745 C 188.746 13.359 189.047 13.057 189.389 13.057 L 194.28 13.057 C 194.707 13.057 194.923 13.314 194.923 13.745 L 194.923 16.364 C 196.426 14.474 198.698 12.76 202.09 12.76 C 206.423 12.76 209.986 15.549 209.986 20.912 L 209.986 30.953 C 209.986 32.285 210.071 33.185 210.201 34.044 C 210.294 34.512 210.119 34.944 209.777 34.944 Z M 229.879 26.275 L 218.38 26.275 C 219.109 28.551 221.169 30.351 225.074 30.351 C 226.662 30.351 228.548 29.879 229.965 28.763 C 230.437 28.547 230.738 28.506 231.121 29.019 L 232.152 30.436 C 232.494 30.864 232.453 31.21 232.066 31.723 C 230.352 33.91 227.603 35.286 223.914 35.286 C 217.093 35.286 212.198 30.782 212.198 24.043 C 212.198 17.606 216.617 12.76 223.311 12.76 C 230.218 12.76 233.996 17.695 233.996 22.928 C 234 24.947 232.925 26.275 229.879 26.275 Z M 218.253 22.113 L 228.165 22.113 C 227.737 19.796 226.361 17.781 223.315 17.781 C 220.399 17.781 218.811 19.711 218.253 22.113 Z M 27.693 2.31 C 27.693 1.034 28.727 0 30.002 0 C 31.278 0 32.312 1.034 32.312 2.31 L 32.312 42.694 C 32.312 43.97 31.278 45.004 30.002 45.004 C 28.727 45.004 27.693 43.97 27.693 42.694 Z M 18.462 10.383 C 18.462 9.108 19.496 8.074 20.771 8.074 C 22.047 8.074 23.081 9.108 23.081 10.383 L 23.081 33.891 C 23.081 35.167 22.047 36.201 20.771 36.201 C 19.496 36.201 18.462 35.167 18.462 33.891 Z M 36.923 12.693 C 36.923 11.417 37.958 10.383 39.233 10.383 C 40.509 10.383 41.543 11.417 41.543 12.693 L 41.543 30.578 C 41.543 31.853 40.509 32.887 39.233 32.887 C 37.958 32.887 36.923 31.853 36.923 30.578 Z M 9.231 19.183 C 9.231 17.907 10.265 16.873 11.54 16.873 C 12.816 16.873 13.85 17.907 13.85 19.183 L 13.85 25.817 C 13.85 27.093 12.816 28.127 11.54 28.127 C 10.265 28.127 9.231 27.093 9.231 25.817 Z M 0 16.371 C 0 15.096 1.034 14.062 2.31 14.062 C 3.585 14.062 4.619 15.096 4.619 16.371 L 4.619 28.629 C 4.619 29.904 3.585 30.938 2.31 30.938 C 1.034 30.938 0 29.904 0 28.629 Z" fill="rgb(245,247,248)"></path></svg>